<svg id="visual" viewBox="0 0 900 600" width="900" height="600" xmlns="http://www.w3.org/2000/svg" xmlns:xlink="http://www.w3.org/1999/xlink" version="1.1"><rect width="900" height="600" fill="#ffffff"></rect><g><g transform="translate(37 326)"><path d="M75.9 -4.5C75.9 36.1 38 72.2 -3.8 72.2C-45.5 72.2 -91 36.1 -91 -4.5C-91 -45.2 -45.5 -90.3 -3.8 -90.3C38 -90.3 75.9 -45.2 75.9 -4.5Z" fill="#e1ebf3"></path></g><g transform="translate(298 158)"><path d="M72.2 -2C72.2 32.6 36.1 65.1 -0.3 65.1C-36.8 65.1 -73.6 32.6 -73.6 -2C-73.6 -36.5 -36.8 -73 -0.3 -73C36.1 -73 72.2 -36.5 72.2 -2Z" fill="#e1ebf3"></path></g><g transform="translate(219 569)"><path d="M60.7 -0.5C60.7 27.9 30.3 55.8 -1.7 55.8C-33.7 55.8 -67.4 27.9 -67.4 -0.5C-67.4 -28.9 -33.7 -57.8 -1.7 -57.8C30.3 -57.8 60.7 -28.9 60.7 -0.5Z" fill="#e1ebf3"></path></g><g transform="translate(794 420)"><path d="M79 1.7C79 40.2 39.5 80.3 -0.3 80.3C-40 80.3 -80 40.2 -80 1.7C-80 -36.9 -40 -73.7 -0.3 -73.7C39.5 -73.7 79 -36.9 79 1.7Z" fill="#e1ebf3"></path></g><g transform="translate(748 32)"><path d="M63.2 1.4C63.2 34.8 31.6 69.5 -1.1 69.5C-33.8 69.5 -67.6 34.8 -67.6 1.4C-67.6 -32 -33.8 -64 -1.1 -64C31.6 -64 63.2 -32 63.2 1.4Z" fill="#e1ebf3"></path></g></g></svg>